<svg xmlns="http://www.w3.org/2000/svg" viewBox="0 0 240 240" fill="none" role="img" aria-label="Pandi растерян (404)">
  <!-- Голова -->
  <circle cx="120" cy="120" r="70" fill="#FFFFFF" stroke="#1F2233" stroke-width="3" />

  <!-- Уши -->
  <circle cx="66" cy="74" r="22" fill="#1F2233" />
  <circle cx="66" cy="74" r="11" fill="#3D4253" />
  <circle cx="174" cy="74" r="22" fill="#1F2233" />
  <circle cx="174" cy="74" r="11" fill="#3D4253" />

  <!-- Пятна — слегка повёрнуты (грустный взгляд) -->
  <ellipse cx="92" cy="124" rx="20" ry="24" fill="#1F2233" transform="rotate(-25 92 124)" />
  <ellipse cx="148" cy="124" rx="20" ry="24" fill="#1F2233" transform="rotate(25 148 124)" />

  <!-- Глаза (закрыты — спирали) -->
  <path d="M88 122 q-6 -2 -6 4 q0 5 6 5 q6 0 6 -5 q0 -6 -6 -4" stroke="#FFFFFF" stroke-width="2" fill="none" />
  <path d="M152 122 q-6 -2 -6 4 q0 5 6 5 q6 0 6 -5 q0 -6 -6 -4" stroke="#FFFFFF" stroke-width="2" fill="none" />

  <!-- Нос -->
  <ellipse cx="120" cy="146" rx="6" ry="4.5" fill="#1F2233" />

  <!-- Рот недоумение -->
  <circle cx="120" cy="166" r="4" fill="none" stroke="#1F2233" stroke-width="2.5" />

  <!-- Вопросительные знаки рядом -->
  <text x="40" y="60" font-family="Nunito, sans-serif" font-weight="800" font-size="34" fill="#5B4FE2">?</text>
  <text x="190" y="50" font-family="Nunito, sans-serif" font-weight="800" font-size="44" fill="#ED7280">?</text>
  <text x="200" y="200" font-family="Nunito, sans-serif" font-weight="800" font-size="28" fill="#F4B942">?</text>
</svg>
